<mxfile host="app.diagrams.net" modified="2022-08-24T07:22:59.674Z" agent="5.0 (Windows NT 10.0; WOW64) AppleWebKit/537.36 (KHTML, like Gecko) Chrome/102.0.5005.167 YaBrowser/22.7.3.821 Yowser/2.5 Safari/537.36" etag="Leq89zdf8khHSiutuOjE" version="20.2.6" type="github">
  <diagram id="C5RBs43oDa-KdzZeNtuy" name="Page-1">
    <mxGraphModel dx="1396" dy="306" grid="1" gridSize="10" guides="1" tooltips="1" connect="1" arrows="1" fold="1" page="1" pageScale="1" pageWidth="827" pageHeight="1169" math="0" shadow="0">
      <root>
        <mxCell id="WIyWlLk6GJQsqaUBKTNV-0" />
        <mxCell id="WIyWlLk6GJQsqaUBKTNV-1" parent="WIyWlLk6GJQsqaUBKTNV-0" />
        <mxCell id="WIyWlLk6GJQsqaUBKTNV-3" value="Начало" style="rounded=1;whiteSpace=wrap;html=1;fontSize=12;glass=0;strokeWidth=1;shadow=0;" parent="WIyWlLk6GJQsqaUBKTNV-1" vertex="1">
          <mxGeometry x="160" y="80" width="120" height="40" as="geometry" />
        </mxCell>
        <mxCell id="pDiJ6SSq74Rm6v7-aUN9-45" value="" style="edgeStyle=orthogonalEdgeStyle;rounded=0;orthogonalLoop=1;jettySize=auto;html=1;" edge="1" parent="WIyWlLk6GJQsqaUBKTNV-1" source="pDiJ6SSq74Rm6v7-aUN9-11" target="pDiJ6SSq74Rm6v7-aUN9-12">
          <mxGeometry relative="1" as="geometry" />
        </mxCell>
        <mxCell id="pDiJ6SSq74Rm6v7-aUN9-11" value="Пользователь нажал кнопку &quot;Заказать&quot;" style="rounded=0;whiteSpace=wrap;html=1;" vertex="1" parent="WIyWlLk6GJQsqaUBKTNV-1">
          <mxGeometry x="160" y="150" width="120" height="60" as="geometry" />
        </mxCell>
        <mxCell id="pDiJ6SSq74Rm6v7-aUN9-14" value="" style="edgeStyle=orthogonalEdgeStyle;rounded=0;orthogonalLoop=1;jettySize=auto;html=1;" edge="1" parent="WIyWlLk6GJQsqaUBKTNV-1" source="pDiJ6SSq74Rm6v7-aUN9-12" target="pDiJ6SSq74Rm6v7-aUN9-13">
          <mxGeometry relative="1" as="geometry" />
        </mxCell>
        <mxCell id="pDiJ6SSq74Rm6v7-aUN9-16" value="" style="edgeStyle=orthogonalEdgeStyle;rounded=0;orthogonalLoop=1;jettySize=auto;html=1;" edge="1" parent="WIyWlLk6GJQsqaUBKTNV-1" source="pDiJ6SSq74Rm6v7-aUN9-12" target="pDiJ6SSq74Rm6v7-aUN9-15">
          <mxGeometry relative="1" as="geometry" />
        </mxCell>
        <mxCell id="pDiJ6SSq74Rm6v7-aUN9-12" value="Данные корректны?" style="rhombus;whiteSpace=wrap;html=1;" vertex="1" parent="WIyWlLk6GJQsqaUBKTNV-1">
          <mxGeometry x="180" y="240" width="80" height="80" as="geometry" />
        </mxCell>
        <mxCell id="pDiJ6SSq74Rm6v7-aUN9-13" value="Вывод сообщения об ошибке" style="whiteSpace=wrap;html=1;" vertex="1" parent="WIyWlLk6GJQsqaUBKTNV-1">
          <mxGeometry y="250" width="120" height="60" as="geometry" />
        </mxCell>
        <mxCell id="pDiJ6SSq74Rm6v7-aUN9-23" value="" style="edgeStyle=orthogonalEdgeStyle;rounded=0;orthogonalLoop=1;jettySize=auto;html=1;" edge="1" parent="WIyWlLk6GJQsqaUBKTNV-1" source="pDiJ6SSq74Rm6v7-aUN9-15" target="pDiJ6SSq74Rm6v7-aUN9-22">
          <mxGeometry relative="1" as="geometry" />
        </mxCell>
        <mxCell id="pDiJ6SSq74Rm6v7-aUN9-15" value="Проверка уникальности полей &quot;Email&quot; и &quot;Телефон&quot;" style="whiteSpace=wrap;html=1;" vertex="1" parent="WIyWlLk6GJQsqaUBKTNV-1">
          <mxGeometry x="160" y="410" width="120" height="60" as="geometry" />
        </mxCell>
        <mxCell id="pDiJ6SSq74Rm6v7-aUN9-18" value="Нет" style="text;html=1;strokeColor=none;fillColor=none;align=center;verticalAlign=middle;whiteSpace=wrap;rounded=0;" vertex="1" parent="WIyWlLk6GJQsqaUBKTNV-1">
          <mxGeometry x="120" y="250" width="60" height="30" as="geometry" />
        </mxCell>
        <mxCell id="pDiJ6SSq74Rm6v7-aUN9-19" value="Да" style="text;html=1;strokeColor=none;fillColor=none;align=center;verticalAlign=middle;whiteSpace=wrap;rounded=0;" vertex="1" parent="WIyWlLk6GJQsqaUBKTNV-1">
          <mxGeometry x="160" y="340" width="60" height="30" as="geometry" />
        </mxCell>
        <mxCell id="pDiJ6SSq74Rm6v7-aUN9-25" value="" style="edgeStyle=orthogonalEdgeStyle;rounded=0;orthogonalLoop=1;jettySize=auto;html=1;" edge="1" parent="WIyWlLk6GJQsqaUBKTNV-1" source="pDiJ6SSq74Rm6v7-aUN9-22" target="pDiJ6SSq74Rm6v7-aUN9-24">
          <mxGeometry relative="1" as="geometry" />
        </mxCell>
        <mxCell id="pDiJ6SSq74Rm6v7-aUN9-27" value="" style="edgeStyle=orthogonalEdgeStyle;rounded=0;orthogonalLoop=1;jettySize=auto;html=1;" edge="1" parent="WIyWlLk6GJQsqaUBKTNV-1" source="pDiJ6SSq74Rm6v7-aUN9-22" target="pDiJ6SSq74Rm6v7-aUN9-26">
          <mxGeometry relative="1" as="geometry" />
        </mxCell>
        <mxCell id="pDiJ6SSq74Rm6v7-aUN9-22" value="Данные уникальны?" style="rhombus;whiteSpace=wrap;html=1;" vertex="1" parent="WIyWlLk6GJQsqaUBKTNV-1">
          <mxGeometry x="180" y="540" width="80" height="80" as="geometry" />
        </mxCell>
        <mxCell id="pDiJ6SSq74Rm6v7-aUN9-24" value="Вывод сообщения об ошибке" style="whiteSpace=wrap;html=1;" vertex="1" parent="WIyWlLk6GJQsqaUBKTNV-1">
          <mxGeometry y="550" width="120" height="60" as="geometry" />
        </mxCell>
        <mxCell id="pDiJ6SSq74Rm6v7-aUN9-29" value="" style="edgeStyle=orthogonalEdgeStyle;rounded=0;orthogonalLoop=1;jettySize=auto;html=1;" edge="1" parent="WIyWlLk6GJQsqaUBKTNV-1" source="pDiJ6SSq74Rm6v7-aUN9-26" target="pDiJ6SSq74Rm6v7-aUN9-28">
          <mxGeometry relative="1" as="geometry" />
        </mxCell>
        <mxCell id="pDiJ6SSq74Rm6v7-aUN9-26" value="Вывод сообщения &quot;Заказ оформлен&quot;" style="whiteSpace=wrap;html=1;" vertex="1" parent="WIyWlLk6GJQsqaUBKTNV-1">
          <mxGeometry x="160" y="710" width="120" height="60" as="geometry" />
        </mxCell>
        <mxCell id="pDiJ6SSq74Rm6v7-aUN9-28" value="Конец" style="rounded=1;whiteSpace=wrap;html=1;" vertex="1" parent="WIyWlLk6GJQsqaUBKTNV-1">
          <mxGeometry x="160" y="850" width="120" height="60" as="geometry" />
        </mxCell>
        <mxCell id="pDiJ6SSq74Rm6v7-aUN9-30" value="Нет" style="text;html=1;strokeColor=none;fillColor=none;align=center;verticalAlign=middle;whiteSpace=wrap;rounded=0;" vertex="1" parent="WIyWlLk6GJQsqaUBKTNV-1">
          <mxGeometry x="120" y="550" width="60" height="30" as="geometry" />
        </mxCell>
        <mxCell id="pDiJ6SSq74Rm6v7-aUN9-31" value="Да" style="text;html=1;strokeColor=none;fillColor=none;align=center;verticalAlign=middle;whiteSpace=wrap;rounded=0;" vertex="1" parent="WIyWlLk6GJQsqaUBKTNV-1">
          <mxGeometry x="160" y="640" width="60" height="30" as="geometry" />
        </mxCell>
        <mxCell id="pDiJ6SSq74Rm6v7-aUN9-32" value="" style="endArrow=none;html=1;rounded=0;" edge="1" parent="WIyWlLk6GJQsqaUBKTNV-1">
          <mxGeometry width="50" height="50" relative="1" as="geometry">
            <mxPoint x="-190" y="880" as="sourcePoint" />
            <mxPoint x="160" y="880" as="targetPoint" />
            <Array as="points">
              <mxPoint x="-20" y="880" />
            </Array>
          </mxGeometry>
        </mxCell>
        <mxCell id="pDiJ6SSq74Rm6v7-aUN9-35" value="" style="endArrow=none;html=1;rounded=0;" edge="1" parent="WIyWlLk6GJQsqaUBKTNV-1">
          <mxGeometry width="50" height="50" relative="1" as="geometry">
            <mxPoint x="-80" y="880" as="sourcePoint" />
            <mxPoint x="-80" y="580" as="targetPoint" />
          </mxGeometry>
        </mxCell>
        <mxCell id="pDiJ6SSq74Rm6v7-aUN9-36" value="" style="endArrow=none;html=1;rounded=0;" edge="1" parent="WIyWlLk6GJQsqaUBKTNV-1">
          <mxGeometry width="50" height="50" relative="1" as="geometry">
            <mxPoint x="-190" y="880" as="sourcePoint" />
            <mxPoint x="-190" y="280" as="targetPoint" />
          </mxGeometry>
        </mxCell>
        <mxCell id="pDiJ6SSq74Rm6v7-aUN9-40" value="" style="endArrow=none;html=1;rounded=0;entryX=0;entryY=0.5;entryDx=0;entryDy=0;" edge="1" parent="WIyWlLk6GJQsqaUBKTNV-1" target="pDiJ6SSq74Rm6v7-aUN9-24">
          <mxGeometry width="50" height="50" relative="1" as="geometry">
            <mxPoint x="-80" y="580" as="sourcePoint" />
            <mxPoint x="-30" y="530" as="targetPoint" />
          </mxGeometry>
        </mxCell>
        <mxCell id="pDiJ6SSq74Rm6v7-aUN9-41" value="" style="endArrow=none;html=1;rounded=0;entryX=0;entryY=0.5;entryDx=0;entryDy=0;" edge="1" parent="WIyWlLk6GJQsqaUBKTNV-1" target="pDiJ6SSq74Rm6v7-aUN9-13">
          <mxGeometry width="50" height="50" relative="1" as="geometry">
            <mxPoint x="-190" y="280" as="sourcePoint" />
            <mxPoint x="-110" y="280" as="targetPoint" />
          </mxGeometry>
        </mxCell>
        <mxCell id="pDiJ6SSq74Rm6v7-aUN9-42" value="" style="endArrow=none;html=1;rounded=0;exitX=0.5;exitY=0;exitDx=0;exitDy=0;" edge="1" parent="WIyWlLk6GJQsqaUBKTNV-1" source="pDiJ6SSq74Rm6v7-aUN9-12">
          <mxGeometry width="50" height="50" relative="1" as="geometry">
            <mxPoint x="170" y="260" as="sourcePoint" />
            <mxPoint x="220" y="210" as="targetPoint" />
          </mxGeometry>
        </mxCell>
        <mxCell id="pDiJ6SSq74Rm6v7-aUN9-50" value="" style="endArrow=classic;html=1;rounded=0;entryX=0.5;entryY=0;entryDx=0;entryDy=0;" edge="1" parent="WIyWlLk6GJQsqaUBKTNV-1" target="pDiJ6SSq74Rm6v7-aUN9-11">
          <mxGeometry width="50" height="50" relative="1" as="geometry">
            <mxPoint x="220" y="120" as="sourcePoint" />
            <mxPoint x="270" y="70" as="targetPoint" />
          </mxGeometry>
        </mxCell>
      </root>
    </mxGraphModel>
  </diagram>
</mxfile>
